<?xml version="1.0" encoding="UTF-8"?>
<svg id="Layer_1" data-name="Layer 1" xmlns="http://www.w3.org/2000/svg" viewBox="0 0 112 45">
  <defs>
    <style>
      .cls-1, .cls-2 {
        fill: #fff;
      }

      .cls-2 {
        opacity: .5;
      }
    </style>
  </defs>
  <g>
    <path class="cls-1" d="m48.38,22.5c-.02-1.73.53-3.28,1.55-4.65.72-.95,1.63-1.7,2.72-2.21.84-.4,1.72-.65,2.65-.75,1.71-.18,3.35.08,4.86.89,1.91,1.04,3.16,2.62,3.69,4.75.19.74.28,1.49.24,2.24-.09,1.65-.59,3.15-1.64,4.45-.79.98-1.75,1.73-2.9,2.21-.61.25-1.26.43-1.91.55-1.75.34-3.58.07-5.16-.73-1.38-.69-2.45-1.73-3.19-3.09-.43-.8-.71-1.65-.85-2.53-.06-.37-.05-.76-.08-1.14Zm7.92,4.6c.67.04,1.4-.12,2.07-.49,1.55-.86,2.26-2.24,2.33-3.96.02-.51-.06-1.05-.19-1.55-.31-1.19-1.02-2.11-2.11-2.71-.89-.49-1.83-.62-2.83-.51-1.14.13-2.04.67-2.73,1.53-.88,1.1-1.17,2.38-.97,3.78.16,1.14.65,2.1,1.52,2.85.81.7,1.74,1.09,2.93,1.05Z"/>
    <path class="cls-1" d="m85.12,25.15v4.72h-3.24v-14.76s.1-.02.15-.02c2.28,0,4.57-.02,6.85.01.99.01,1.95.2,2.86.64,1.27.63,2.05,1.63,2.32,3.01.23,1.17.19,2.35-.32,3.46-.43.94-1.15,1.62-2.07,2.08-.2.1-.41.19-.64.3,1.19,1.74,3.6,5.27,3.6,5.27h-3.8s-3.16-4.73-3.16-4.73h-2.57Zm.01-7.11v4.21c.06,0,.11.01.16.01,1.05,0,2.1,0,3.15,0,.23,0,.46-.02.68-.06.64-.13,1.2-.4,1.54-1.02.23-.41.21-.85.2-1.29-.02-.67-.32-1.17-.91-1.49-.5-.28-1.05-.37-1.62-.37-.99,0-1.98,0-2.97,0-.07,0-.15,0-.23.01Z"/>
    <path class="cls-1" d="m76.45,24.18h-3.26v-2.81h6.41v.28c0,1.94,0,3.88,0,5.83,0,.24-.1.38-.26.51-.95.74-1.98,1.35-3.14,1.69-.6.18-1.23.3-1.85.37-.69.07-1.4.11-2.08.05-.88-.07-1.73-.3-2.53-.69-.82-.39-1.55-.87-2.18-1.52-.95-.99-1.55-2.15-1.86-3.49-.2-.86-.24-1.74-.18-2.6.08-1.19.47-2.3,1.09-3.32.41-.67.9-1.26,1.49-1.77.84-.73,1.8-1.25,2.88-1.55.95-.27,1.92-.35,2.9-.29.95.06,1.88.2,2.78.54.77.29,1.45.72,2.09,1.22.1.08.2.16.32.25-.54.64-1.07,1.28-1.6,1.91-.12.14-.46.56-.46.56l-.13-.09s-1.51-1.08-2.43-1.26c-1.02-.2-2.05-.25-3.02.25-.76.39-1.36.95-1.81,1.68-.37.61-.62,1.26-.68,1.96-.11,1.29.11,2.52.92,3.59,1.33,1.74,3.8,2.1,5.75,1.29.26-.11.75-.41.75-.41l.1-.07s0-1.41,0-2.1Z"/>
    <path class="cls-1" d="m110.67,29.88h-3.37s-.07-.17-.07-.17c0,0-.7-1.72-1.05-2.57-.08-.19-.15-.38-.23-.57-2.08,0-4.15,0-6.22,0-.01.01-.03.03-.04.04-.42,1.02-1.25,3.06-1.25,3.06l-.09.21s-2.24,0-3.32,0c2.12-4.98,4.22-9.92,6.33-14.89.74,0,3.01,0,3.01,0l.3.71s1.04,2.45,1.56,3.67c.53,1.25,4.44,10.5,4.44,10.5Zm-9.81-6.2h3.92l-1.96-4.77-1.96,4.77Z"/>
    <path class="cls-1" d="m47.71,27.51c-.73.77-1.54,1.44-2.51,1.9-2.16,1.01-4.81.98-6.96-.04-.94-.45-1.74-1.1-2.41-1.9-.86-1.03-1.41-2.21-1.62-3.53-.08-.52-.17-1.04-.15-1.56.06-1.76.57-3.37,1.71-4.75,1.16-1.41,2.63-2.28,4.43-2.62.72-.14,1.44-.17,2.16-.13.98.05,1.96.21,2.86.61.9.39,1.71.93,2.38,1.66-.6.7-2.06,2.35-2.06,2.35l-.25-.19s-.97-.69-1.49-.97c-.45-.25-.96-.36-1.48-.42-.68-.09-1.34-.04-1.98.19-1.19.43-2,1.28-2.49,2.43-.21.5-.32,1.03-.36,1.58-.11,1.32.25,2.5,1.06,3.53.59.75,1.38,1.25,2.33,1.44,1.42.28,2.69-.07,3.85-.89.32-.23.64-.49.92-.77,0,0,1.43,1.47,2.07,2.13Z"/>
    <path class="cls-1" d="m31.54,28.07c-.52.57-1.08,1.07-1.76,1.42-.33.17-.66.31-1.01.4-.73.19-1.51.24-2.26.2-.39-.02-.75-.09-1.12-.21-.11-.03-.22-.07-.33-.11-.77-.3-1.43-.77-2-1.37-.67-.73-1.08-1.58-1.32-2.54-.16-.64-.2-1.29-.15-1.94.1-1.19.48-2.28,1.22-3.24.63-.81,1.42-1.4,2.38-1.72.4-.13.84-.19,1.27-.22.8-.06,1.58.03,2.33.34.66.27,1.23.67,1.7,1.22.47.54.83,1.14,1.03,1.81.14.45.24.91.3,1.37.06.49.06.99.08,1.51h-8.66c.05.88.36,1.63.88,2.31.53.7,1.26,1.14,2.09,1.31,1.22.24,2.39.02,3.43-.72.31-.22.6-.48.87-.75,0,0,.71.63,1.02.91Zm-1.29-4.27c-.05-.74-.22-1.42-.58-2.04-.37-.64-.88-1.16-1.6-1.42-.57-.21-1.15-.28-1.77-.21-.75.09-1.36.44-1.87.95-.55.55-.87,1.25-1.08,2-.06.23-.08.47-.12.71h7.02Z"/>
    <path class="cls-1" d="m99.67,26.6s.03-.03.04-.04c-.01.01-.03.03-.04.04Z"/>
  </g>
  <g>
    <path class="cls-1" d="m5.73,28.84c-.26-.36-.5-.7-.74-1.04-.62-.87-1.24-1.74-1.86-2.61-.43-.61-1.58-2.16-1.85-2.52v9.23c0,.41.33.74.74.74h14.18c.41,0,.74-.33.74-.74V15.44c-.9,1.08-7.99,9.55-11.21,13.41Z"/>
    <path class="cls-1" d="m4.97,22.68c.17.07.29.05.44-.06,1.02-.76,2.04-1.51,3.07-2.26,1.23-.9,2.45-1.8,3.68-2.7,1.01-.74,2.03-1.47,3.04-2.21.55-.4,1.09-.81,1.64-1.22.01-.01.06-.04.1-.07v-1.09c0-.41-.33-.74-.74-.74H2.02c-.41,0-.74.33-.74.74v8.04l3.69,1.56Z"/>
  </g>
  <path class="cls-2" d="m16.94,14.17s-.09.06-.1.07c-.55.41-1.09.82-1.64,1.22-1.01.74-2.03,1.47-3.04,2.21-1.23.9-2.46,1.8-3.68,2.7-1.02.75-2.05,1.5-3.07,2.26-.15.11-.27.14-.44.06l-3.69-1.56v.59c.35.22.79.49,1.03.65.91.61,1.81,1.23,2.72,1.84.3.21.31.19.58-.05.42-.37.85-.72,1.28-1.08.65-.53,1.3-1.06,1.94-1.6.43-.35.84-.71,1.27-1.06.53-.44,1.07-.87,1.6-1.31.53-.44,1.06-.89,1.59-1.33.53-.44,1.07-.87,1.6-1.31.53-.44,1.04-.92,1.6-1.32.19-.16.35-.29.44-.38v-.6Z"/>
</svg>