<?xml version="1.0" encoding="UTF-8"?>
<svg xmlns="http://www.w3.org/2000/svg" xmlns:xlink="http://www.w3.org/1999/xlink" viewBox="0 0 150 150" width="150px" height="150px">
<g id="surface140648852">
<path style=" stroke:none;fill-rule:nonzero;fill:rgb(100%,100%,100%);fill-opacity:1;" d="M 75 2.636719 C 35.101562 2.636719 2.636719 35.101562 2.636719 75 C 2.636719 114.898438 35.101562 147.363281 75 147.363281 C 114.898438 147.363281 147.363281 114.898438 147.363281 75 C 147.363281 35.101562 114.898438 2.636719 75 2.636719 Z M 75 13.769531 C 108.875 13.769531 136.230469 41.125 136.230469 75 C 136.230469 108.875 108.875 136.230469 75 136.230469 C 41.125 136.230469 13.769531 108.875 13.769531 75 C 13.769531 41.125 41.125 13.769531 75 13.769531 Z M 69.433594 41.601562 L 69.433594 52.734375 L 80.566406 52.734375 L 80.566406 41.601562 Z M 69.433594 63.867188 L 69.433594 108.398438 L 80.566406 108.398438 L 80.566406 63.867188 Z M 69.433594 63.867188 "/>
</g>
</svg>
