<?xml version="1.0" encoding="UTF-8"?>
<svg id="Layer_1" xmlns="http://www.w3.org/2000/svg" version="1.1" viewBox="0 0 500 75.23">
  <!-- Generator: Adobe Illustrator 29.2.0, SVG Export Plug-In . SVG Version: 2.1.0 Build 108)  -->
  <defs>
    <style>
      .st0 {
        fill: #fff;
      }
    </style>
  </defs>
  <path class="st0" d="M349.59,30.81c0-17.24,11.44-26.43,22.11-26.43h3.84c10.78,0,18.34,8.49,19.34,19.31h-9c-.59-6.42-4.76-11.3-10.23-11.3h-3.91c-6.35,0-12.7,6.83-12.7,18.42s6.13,18.42,12.59,18.42h3.8c5.5,0,9.71-5.09,10.48-11.29h9.01c-.85,11-10.01,19.31-19.49,19.31h-3.8c-11.03,0-22.04-9.23-22.04-26.43ZM444.07,35.92v20.78h-8.67V19.49h8.67v5.13c1.36-3.21,4.02-5.13,7.49-5.13h4.76v7.27h-5.43c-4.32,0-6.83,4.84-6.83,9.15ZM89.36,30.9v.03c0,.29-.11.56-.32.77l-25.76,25.76c-.1.1-.24.16-.38.16h-.16c-.3,0-.54-.24-.54-.54v-26.14c0,.29-.11.56-.32.77l-25.6,25.6c-.2.2-.48.32-.77.32h-.03c-.29,0-.56-.12-.76-.32L9.1,31.7c-.2-.2-.31-.48-.31-.76v-.03c0-.29.11-.56.32-.77L34.7,4.53c.2-.2.48-.32.77-.32h.03c.29,0,.56.11.77.31l25.6,25.6c.2.2.32.48.32.77V4.75c0-.3.24-.54.54-.54h.16c.14,0,.28.06.38.16l25.76,25.76c.2.2.32.48.32.77,0,0,0,0,0,0ZM146.63,7.08c-2.45-1.34-5.33-2.02-8.63-2.02h-21.32v51.46h9.26v-19.74h12.06c3.31,0,6.19-.67,8.64-2.02,2.38-1.28,4.34-3.23,5.62-5.61,1.3-2.39,1.95-5.13,1.95-8.21s-.65-5.83-1.95-8.24c-1.28-2.39-3.24-4.34-5.62-5.62,0,0,0,0,0,0ZM143.99,24.93c-.56,1.19-1.43,2.14-2.59,2.83-1.16.7-2.63,1.05-4.39,1.05h-11.06v-15.77h11.07c2.6,0,4.55.74,5.86,2.23,1.31,1.48,1.97,3.37,1.97,5.68,0,1.47-.28,2.8-.84,3.99h0s0,0,0,0ZM221.83,19.47l-15.51,42.94c-1.13,3.14-2.61,5.44-4.45,6.91-1.84,1.47-4.13,2.2-6.87,2.2h-4.72v-7.17h4.06c1.27,0,2.33-.45,3.16-1.34.83-.89,2.3-4.69,2.67-5.9l-13.74-37.65h8.97l8.9,26.58c.59-2.18,8.72-26.58,8.72-26.58h8.82ZM248.96,38.2c1.57,1.58,2.35,4,2.35,7.26,0,2.26-.6,4.27-1.78,6.03-1.2,1.78-2.86,3.21-4.8,4.13-2.04,1-4.28,1.51-6.54,1.49h-3.02c-2.33.02-4.64-.46-6.78-1.4-2.1-.93-3.8-2.22-4.98-4.04-1.22-1.88-1.79-4.38-1.84-6.69h8.53c.15,1.5.41,3.35,1.45,4.23,1.18.99,2.35,1.25,3.69,1.25h2.5c1.37,0,2.53-.35,3.45-1.03.93-.69,1.4-1.76,1.4-3.2,0-1.23-.35-2.17-1.07-2.85-.71-.67-1.8-1.15-3.27-1.41l-7.1-1.4c-2.96-.59-5.23-1.78-6.78-3.58-1.56-1.8-2.33-4.09-2.33-6.85,0-2.16.57-4.09,1.73-5.81,1.16-1.72,2.76-3.09,4.63-3.97,1.95-.93,4.09-1.41,6.25-1.4h2.83c2.26,0,4.35.46,6.29,1.36,1.87.86,3.49,2.18,4.7,3.84,1.2,1.65,1.83,4.66,1.88,6.82h-8.31c-.1-1.27-.32-3.09-1.37-4.1-.88-.87-2.09-1.35-3.33-1.31h-2.39c-1.25,0-2.28.34-3.09,1.01-.81.67-1.22,1.6-1.22,2.78,0,.95.34,1.79,1.01,2.49.67.71,1.66,1.2,2.96,1.47l7.24,1.51c3.16.66,5.53,1.78,7.09,3.36,0,0,0,0,0,0ZM285.4,48.35c-.3-.4-.44-1.02-.44-1.86v-13.79c0-2.57-.56-4.92-1.65-7.04-1.08-2.09-2.74-3.82-4.78-4.98-2.09-1.2-4.53-1.8-7.35-1.8h-2.68c-2.5,0-4.82.52-6.98,1.56-2.11,1-3.93,2.53-5.29,4.43-1.37,1.91-1.94,3.65-2.14,6.1h8.64c.12-1.72.51-2.7,1.62-3.68,1.1-.98,2.53-1.4,4.15-1.4h2.68c.93,0,1.8.27,2.61.82.81.56,1.45,1.33,1.91,2.31.46,1,.7,2.11.7,3.33v.74l-9.81,1.47c-3.94.64-7.1,1.92-9.47,3.86-2.37,1.94-3.54,4.58-3.54,7.94,0,2.16.51,4.05,1.52,5.66,1.01,1.62,2.46,2.87,4.32,3.75,1.86.88,4.02,1.33,6.47,1.33,2.62,0,4.94-.51,6.95-1.54,2.01-1.03,3.49-2.44,4.45-4.23.1,1.79.68,3.1,1.75,3.93,1.07.83,2.52,1.25,4.36,1.25h5.77v-7.24c-1.1,0-1.93-.05-2.48-.16-.51-.08-.96-.36-1.27-.77h0s0,0,0,0ZM276.39,41.16c0,1.81-.37,3.42-1.12,4.82-.75,1.4-1.8,2.48-3.16,3.25-1.36.77-2.93,1.16-4.69,1.16-1.5,0-2.72-.41-3.68-1.22-.94-.78-1.47-1.95-1.43-3.17,0-1.62.53-2.8,1.6-3.54,1.07-.75,2.71-1.32,4.94-1.71l7.54-1.4s0,1.8,0,1.8ZM190.61,49.28c-1.1,0-1.93-.05-2.48-.16-.51-.08-.96-.36-1.27-.77-.3-.4-.44-1.02-.44-1.86v-13.79c0-2.57-.56-4.92-1.65-7.04-1.07-2.09-2.74-3.82-4.78-4.98-2.09-1.2-4.53-1.8-7.36-1.8h-2.68c-2.5,0-4.83.52-6.99,1.56-2.11,1-3.93,2.53-5.29,4.43-1.37,1.91-1.94,3.65-2.13,6.1h8.64c.12-1.72.51-2.7,1.62-3.68,1.1-.98,2.53-1.4,4.15-1.4h2.68c.93,0,1.8.27,2.61.82.81.56,1.45,1.33,1.91,2.31.46,1,.7,2.11.7,3.33v.74l-9.82,1.47c-3.94.64-7.1,1.92-9.47,3.86s-3.54,4.58-3.54,7.94c0,2.16.51,4.05,1.53,5.66,1.01,1.62,2.45,2.87,4.31,3.75,1.87.88,4.02,1.33,6.47,1.33,2.62,0,4.94-.51,6.95-1.54,2.01-1.03,3.49-2.44,4.45-4.23.09,1.79.68,3.1,1.74,3.93,1.07.83,2.52,1.25,4.36,1.25h5.77v-7.24h0s0,0,0,0ZM177.85,41.16c0,1.81-.37,3.42-1.12,4.82-.75,1.4-1.8,2.48-3.16,3.25-1.36.77-2.93,1.16-4.69,1.16-1.5,0-2.72-.41-3.68-1.22-.94-.78-1.47-1.95-1.43-3.17,0-1.62.53-2.8,1.6-3.54s2.71-1.32,4.94-1.71l7.54-1.4s0,1.8,0,1.8ZM312.66,26.64h-10.08v29.89h-8.63v-29.89h-7.21v-7.17h7.21v-3.49c0-3.55.89-6.26,2.68-8.13,1.79-1.86,4.3-2.79,7.54-2.79h8.49v7.17h-5.88c-1.42,0-2.47.37-3.16,1.12-.69.75-1.03,1.89-1.03,3.44v2.68h10.08v7.17s0,0,0,0ZM339.16,21.27c-2.29-1.59-5.01-2.42-7.79-2.39h-2.83c-2.75,0-5.35.78-7.81,2.33-2.46,1.56-4.46,3.8-5.97,6.71-1.52,2.92-2.28,6.24-2.28,9.96s.7,7.02,2.11,9.94c1.41,2.93,3.36,5.21,5.84,6.84,2.49,1.63,5.24,2.44,8.25,2.44h2.72c2.57,0,4.94-.56,7.11-1.69,2.13-1.09,3.97-2.69,5.35-4.65,1.39-1.95,2.24-4.22,2.46-6.6h-8.23c-.32,1.62-1.09,2.97-2.3,4.06-1.18,1.08-2.72,1.66-4.32,1.63h-2.72c-1.42,0-2.71-.49-3.88-1.49-1.16-.99-2.09-2.41-2.78-4.26-.49-1.37-.8-2.8-.93-4.24h25.34c.03-.26.15-2.34.15-3.2.03-3.1-.66-6.15-2.02-8.93-1.35-2.72-3.18-4.88-5.48-6.47h0s0,0,0,0ZM321.5,33.51c.17-.78.4-1.51.67-2.21.73-1.84,1.7-3.23,2.89-4.19s2.43-1.43,3.73-1.43h2.57c1.15,0,2.23.35,3.23,1.03,1,.68,1.81,1.63,2.41,2.85s.92,2.53.97,3.95h-16.48s0,0,0,0ZM429.94,49.11c-.51-.08-.96-.36-1.27-.77-.3-.4-.44-1.02-.44-1.86v-13.79c0-2.57-.56-4.92-1.65-7.04-1.07-2.09-2.73-3.82-4.78-4.98-2.09-1.2-4.53-1.8-7.35-1.8h-2.68c-2.5,0-4.83.52-6.99,1.56-2.11,1-3.93,2.53-5.29,4.43-1.37,1.91-1.94,3.65-2.13,6.1h8.64c.12-1.72.51-2.7,1.62-3.68,1.11-.98,2.54-1.4,4.15-1.4h2.68c.93,0,1.8.27,2.61.82.81.56,1.45,1.33,1.91,2.31.47,1,.7,2.11.7,3.33v.74l-9.82,1.47c-3.94.64-7.1,1.92-9.46,3.86-2.37,1.94-3.55,4.58-3.55,7.94,0,2.16.51,4.05,1.52,5.66,1.02,1.62,2.46,2.87,4.32,3.75,1.86.88,4.02,1.33,6.47,1.33,2.62,0,4.94-.51,6.95-1.54,2.01-1.03,3.49-2.44,4.45-4.23.09,1.79.68,3.1,1.74,3.94,1.07.83,2.52,1.25,4.36,1.25h5.77v-7.24c-.83.02-1.66-.03-2.48-.16h0s0,0,0,0ZM419.66,41.16c0,1.81-.37,3.42-1.12,4.82-.75,1.4-1.8,2.48-3.16,3.25-1.36.77-2.93,1.16-4.69,1.16-1.5,0-2.72-.41-3.68-1.22-.94-.78-1.47-1.94-1.43-3.16,0-1.62.53-2.8,1.6-3.54s2.71-1.32,4.95-1.71l7.54-1.4v1.8h0,0ZM472.65,49.65h2.47c4.5,0,8.08-4.83,8.08-11.73s-3.58-11.74-8.08-11.74h-2.47c-4.24,0-8.05,4.8-8.05,11.74s3.77,11.74,8.05,11.74h0ZM455.82,37.92c0-10.63,6.27-19.2,15.76-19.2h2.25c3.29,0,6.98,2.25,8.75,4.95V5.06h8.64v51.46h-8.64v-4.28c-2.07,2.84-6.16,4.87-9.01,4.87h-2.14c-9.01,0-15.61-8.9-15.61-19.2h0Z"/>
</svg>