<?xml version="1.0" encoding="UTF-8"?>
<svg id="Layer_1" xmlns="http://www.w3.org/2000/svg" version="1.1" viewBox="0 0 100 60">
  <!-- Generator: Adobe Illustrator 29.1.0, SVG Export Plug-In . SVG Version: 2.1.0 Build 142)  -->
  <defs>
    <style>
      .st0 {
        fill: #161616;
      }
    </style>
  </defs>
  <path class="st0" d="M69.8,28.8c0-3.4,2.3-5.2,4.4-5.2h.8c2.2,0,3.6,1.7,3.8,3.8h-1.8c0-1.3-1-2.3-2.1-2.3h-.8c-1.3,0-2.5,1.4-2.5,3.6s1.2,3.6,2.5,3.6h.8c1.1,0,2-1,2.1-2.3h1.8c-.2,2.2-2,3.8-3.8,3.8h-.8c-2.2,0-4.4-1.9-4.4-5.2h0ZM88.5,29.7v4.1h-1.8v-7.4h1.8v1c.3-.6.8-1,1.5-1h1v1.5h-1.1c-.9,0-1.4,1-1.4,1.9h0ZM18.1,28.8h0v.2l-5.1,5.1h0s0,0,0,0v-5.2.2l-5.1,5.1h-.4l-5.3-5.1v-.2h0v-.2l5.1-5.1h.4l5.1,5.1v.2-5.2s0,0,0,0h0l5.1,5.1v.2h.2ZM29.5,24.1c-.5-.3-1.1-.4-1.7-.4h-4.2v10.2h1.9v-3.9h2.4c.7,0,1.3,0,1.7-.4.5-.3.9-.7,1.1-1.1.3-.5.4-1,.4-1.7s0-1.2-.4-1.7-.7-.9-1.1-1.1h0ZM29,27.6c0,.2-.3.4-.5.6-.2,0-.5.2-.9.2h-2.2v-3.1h2.2c.5,0,.9,0,1.2.5.3.3.4.7.4,1.1s0,.6-.2.8h0ZM44.4,26.5l-3,8.5c-.2.6-.5,1.1-.9,1.4-.4.3-.8.4-1.4.4h-1v-1.5h.8c.3,0,.5,0,.6-.3s.5-.9.5-1.2l-2.7-7.5h1.8l1.8,5.3c0-.4,1.8-5.3,1.8-5.3h1.9ZM49.8,30.2c.3.3.5.8.5,1.5s0,.9-.4,1.2c-.2.4-.6.6-1,.8s-.9.3-1.3.3h-.6c-.5,0-.9,0-1.4-.3-.4-.2-.8-.4-1-.8-.2-.4-.4-.9-.4-1.4h1.7c0,.3,0,.7.3.9.2.2.5.3.7.3h.5c.3,0,.5,0,.7-.2.2,0,.3-.4.3-.6s0-.4-.2-.6c0,0-.4-.2-.7-.3l-1.4-.3c-.6,0-1.1-.4-1.4-.7-.3-.4-.5-.8-.5-1.4s0-.8.4-1.2c.2-.3.6-.6.9-.8.4-.2.8-.3,1.3-.3h.6c.5,0,.9,0,1.3.3.4.2.7.4,1,.8.2.3.4.9.4,1.4h-1.7c0-.3,0-.6-.3-.8-.2-.2-.4-.3-.7-.3h-.5c-.3,0-.5,0-.6.2s-.2.3-.2.6,0,.4.2.5c0,0,.3.2.6.3l1.5.3c.6,0,1.1.4,1.4.7h0ZM57,32.3v-3.1c0-.5,0-1-.3-1.4s-.6-.8-1-1-.9-.4-1.5-.4h-.5c-.5,0-1,0-1.4.3-.4.2-.8.5-1.1.9s-.4.7-.4,1.2h1.7c0-.3,0-.5.3-.7s.5-.3.8-.3h.5c.2,0,.4,0,.5.2.2,0,.3.3.4.5,0,.2,0,.4,0,.7h0c0,0-2,.4-2,.4-.8,0-1.4.4-1.9.8s-.7.9-.7,1.6,0,.8.3,1.1.5.6.9.8.8.3,1.3.3,1,0,1.4-.3.7-.5.9-.9c0,.4,0,.6.4.8s.5.3.9.3h1.2v-1.5h-.5c0,0-.2,0-.3-.2h0ZM55.2,30.8c0,.4,0,.7-.2,1s-.4.5-.6.7c-.3.2-.6.2-.9.2s-.6,0-.7-.2c-.2-.2-.3-.4-.3-.6,0-.3,0-.6.3-.7.2-.2.5-.3,1-.3l1.5-.3v.4h0v-.2ZM38.2,32.4h-.5c0,0-.2,0-.3-.2v-3.1c0-.5,0-1-.3-1.4s-.6-.8-1-1-.9-.4-1.5-.4h-.5c-.5,0-1,0-1.4.3-.4.2-.8.5-1.1.9-.3.4-.4.7-.4,1.2h1.7c0-.3,0-.5.3-.7s.5-.3.8-.3h.5c.2,0,.4,0,.5.2.2,0,.3.3.4.5,0,.2,0,.4,0,.7h0c0,0-2,.4-2,.4-.8,0-1.4.4-1.9.8s-.7.9-.7,1.6,0,.8.3,1.1c.2.3.5.6.9.8s.8.3,1.3.3,1,0,1.4-.3.7-.5.9-.9c0,.4,0,.6.4.8.2.2.5.3.9.3h1.2v-1.5h0ZM35.6,30.8c0,.4,0,.7-.2,1s-.4.5-.6.7-.6.2-.9.2-.6,0-.7-.2c-.2-.2-.3-.4-.3-.6,0-.3,0-.6.3-.7s.5-.3,1-.3l1.5-.3v.4h0v-.2ZM62.4,28h-2v5.9h-1.7v-5.9h-1.5v-1.5h1.5v-.7c0-.7.2-1.3.5-1.6.4-.4.9-.6,1.5-.6h1.7v1.5h-1.2c-.3,0-.5,0-.6.2s-.2.4-.2.7v.5h2v1.5h0ZM67.7,26.9c-.5-.3-1-.5-1.6-.5h-.6c-.6,0-1.1.2-1.6.5s-.9.8-1.2,1.4-.5,1.3-.5,2,0,1.4.4,2c.3.6.7,1.1,1.2,1.4.5.3,1.1.5,1.7.5h.6c.5,0,1,0,1.4-.3s.8-.5,1.1-.9c.3-.4.5-.9.5-1.3h-1.7c0,.3-.2.6-.5.8-.2.2-.6.3-.9.3h-.6c-.3,0-.5,0-.8-.3s-.4-.5-.6-.9c0-.3-.2-.6-.2-.9h5v-.6c0-.6,0-1.2-.4-1.8-.3-.6-.6-1-1.1-1.3h.3ZM64.2,29.3c0-.2,0-.3,0-.4,0-.4.3-.7.6-.8s.5-.3.8-.3h.5c.2,0,.5,0,.7.2s.4.3.5.6.2.5.2.8h-3.3ZM85.6,32.4c0,0-.2,0-.3-.2v-3.1c0-.5,0-1-.3-1.4-.2-.4-.6-.8-1-1s-.9-.4-1.5-.4h-.5c-.5,0-1,0-1.4.3-.4.2-.8.5-1.1.9-.3.4-.4.7-.4,1.2h1.7c0-.3,0-.5.3-.7s.5-.3.8-.3h.5c.2,0,.4,0,.5.2.2,0,.3.3.4.5,0,.2,0,.4,0,.7h0c0,0-2,.4-2,.4-.8,0-1.4.4-1.9.8-.5.4-.7.9-.7,1.6s0,.8.3,1.1c.2.3.5.6.9.8s.8.3,1.3.3,1,0,1.4-.3.7-.5.9-.9c0,.4,0,.6.4.8.2.2.5.3.9.3h1.2v-1.5h-.5ZM83.7,30.8c0,.4,0,.7-.2,1s-.4.5-.6.7c-.3.2-.6.2-.9.2s-.6,0-.7-.2c-.2-.2-.3-.4-.3-.6,0-.3,0-.6.3-.7s.5-.3,1-.3l1.5-.3v.4h0v-.2ZM94.2,32.5h.5c.9,0,1.6-1,1.6-2.4s-.7-2.4-1.6-2.4h-.5c-.9,0-1.6,1-1.6,2.4s.8,2.4,1.6,2.4h0ZM90.8,30.1c0-2.2,1.3-3.8,3.1-3.8h.5c.7,0,1.4.5,1.8,1v-3.7h1.7v10.2h-1.7v-.9c-.4.6-1.2,1-1.8,1h-.4c-1.8,0-3.1-1.8-3.1-3.8h0Z"/>
</svg>